<svg id="Layer_1" data-name="Layer 1" xmlns="http://www.w3.org/2000/svg" viewBox="0 0 1080 1080"><defs><style>.cls-1{fill:#00a79d;}.cls-2{fill:#010101;}.cls-3{fill:#2bb673;}.cls-4{fill:#00a651;}</style></defs><path class="cls-1" d="M505.88,18.28c-120.73,0-230.2,48-310.56,125.86l310.56,320.6Z"/><path class="cls-2" d="M505.88,483a18.26,18.26,0,0,1-13.13-5.56L182.19,156.86A18.28,18.28,0,0,1,182.6,131C269.82,46.53,384.63,0,505.88,0a18.27,18.27,0,0,1,18.27,18.28V464.74A18.25,18.25,0,0,1,505.88,483ZM221.43,144.83,487.6,419.6V36.94A425.51,425.51,0,0,0,221.43,144.83Z"/><path class="cls-3" d="M122,816.61,486.22,558.52,175.65,237.92C91.89,319.07,39.74,432.66,39.74,558.52A444.2,444.2,0,0,0,122,816.61Z"/><path class="cls-2" d="M122.05,834.89a18.28,18.28,0,0,1-14.92-7.69A461.53,461.53,0,0,1,21.46,558.52c0-126.81,50.24-245.34,141.47-333.73a17.75,17.75,0,0,1,13-5.15,18.31,18.31,0,0,1,12.84,5.56L499.35,545.8a18.29,18.29,0,0,1-2.56,27.64L132.6,831.52A18.11,18.11,0,0,1,122.05,834.89ZM175.5,264C99.6,343.93,58,447.8,58,558.52a424.86,424.86,0,0,0,68.66,232.4l331.58-235Z"/><path class="cls-4" d="M1032.79,524.75A439.52,439.52,0,0,0,1022,479.09c-1.86-6.44-3.88-12.78-6-19.08q-7-20.68-16-40.45c-2.57-5.76-5.27-11.41-8.08-17q-9.33-18.56-20.26-36.18c-3.22-5.14-6.46-10.24-9.86-15.23q-12.6-18.54-27-35.76-5.67-6.81-11.63-13.44-13.36-14.81-28-28.44c-4.31-4-8.74-8-13.22-11.82q-15.21-13.14-31.56-24.9c-4.87-3.53-9.78-7-14.8-10.26-11.42-7.59-23.15-14.69-35.28-21.2q-8.17-4.41-16.58-8.5a447.75,447.75,0,0,0-44.07-18.66c-6.18-2.24-12.41-4.4-18.72-6.36A456.21,456.21,0,0,0,676,160.2q-10.56-2.13-21.27-3.81a456,456,0,0,0-51.56-4.88c-6.07-.24-12.15-.47-18.27-.47a8.86,8.86,0,0,0-8.87,8.87V601.82l-31.56,22.34-86.13,61L264.5,822.6l-48.89,34.68A8.8,8.8,0,0,0,212,863a9,9,0,0,0,1.52,6.65c.54.76,1.16,1.49,1.71,2.25,7.87,10.93,16.27,21.38,25,31.49,3.89,4.48,7.79,8.93,11.84,13.24q13.66,14.68,28.5,27.93,6.64,6,13.45,11.64c11.53,9.57,23.37,18.68,35.71,27,5,3.39,10.21,6.54,15.36,9.74q17.64,10.95,36.15,20.31c5.6,2.79,11.24,5.55,17,8.12,13.22,6,26.8,11.19,40.57,15.88,6.3,2.13,12.62,4.2,19,6.06a457.49,457.49,0,0,0,45.51,11c7.22,1.31,14.48,2.35,21.75,3.31a452.28,452.28,0,0,0,58.66,4.08c.41,0,.83,0,1.25,0q12.33,0,24.47-.69a451.42,451.42,0,0,0,64.58-8.12c11.18-2.23,22.18-4.92,33-8a451.78,451.78,0,0,0,94.7-38.23A461.72,461.72,0,0,0,985.27,823.15a451.46,451.46,0,0,0,38.24-94.67c3-10.88,5.72-21.88,8-33.07a459.49,459.49,0,0,0,8.14-64.56c.41-8.12.65-16.27.65-24.47,0-.42,0-.85,0-1.26a463.26,463.26,0,0,0-4-58.67Q1034.74,535.5,1032.79,524.75Z"/><path class="cls-2" d="M584.92,1080l-1.84,0a469.72,469.72,0,0,1-60.5-4.23c-7.52-1-15.08-2.08-22.57-3.44a473.07,473.07,0,0,1-47.4-11.4c-6.61-1.92-13.18-4.07-19.73-6.28-15.52-5.29-29.33-10.7-42.25-16.55-5.89-2.64-11.75-5.51-17.57-8.4-12.76-6.44-25.39-13.54-37.65-21.16l-2.73-1.69c-4.45-2.74-8.88-5.49-13.21-8.41-12-8.11-24.11-17.3-37.16-28.14q-7.12-5.93-14-12.1c-10.56-9.49-20.54-19.27-29.66-29.07-4.16-4.44-8.22-9.07-12.26-13.72-9.83-11.41-18.32-22.12-26-32.79-.85-1.1-1.31-1.69-1.74-2.3a27.11,27.11,0,0,1,6.49-38L557.77,592.36V159.91a27.18,27.18,0,0,1,27.15-27.15c6.36,0,12.68.24,19,.49a472.18,472.18,0,0,1,53.62,5.07q11.18,1.76,22.11,4a478.88,478.88,0,0,1,46.73,12.07c6.54,2,13,4.28,19.48,6.62a468.09,468.09,0,0,1,45.86,19.41q8.73,4.27,17.24,8.85c12.12,6.5,24.49,13.93,36.72,22.06,5.17,3.4,10.32,7,15.41,10.69,11.16,8,22.21,16.73,32.77,25.85,4.65,4,9.25,8.11,13.74,12.29,10.21,9.5,20,19.45,29.16,29.56q6.21,6.9,12.11,14c9.9,11.86,19.34,24.37,28,37.16,3.52,5.18,6.88,10.48,10.23,15.82,7.64,12.33,14.73,25,21.1,37.67,2.94,5.87,5.76,11.77,8.44,17.77,6.17,13.64,11.77,27.8,16.61,42,2.24,6.57,4.34,13.18,6.28,19.89a466.11,466.11,0,0,1,11.2,47.45c1.36,7.49,2.54,15,3.55,22.58a484.9,484.9,0,0,1,4.2,61l0,1.32c0,8-.23,16.35-.68,25.39a480.3,480.3,0,0,1-8.47,67.2c-2.19,11-4.89,22.24-8.26,34.39A473.43,473.43,0,0,1,711.9,1062.57c-12,3.34-23.2,6-34.35,8.27a474.27,474.27,0,0,1-67.19,8.45C601.7,1079.76,593.13,1080,584.92,1080ZM234,866.62c6,8.06,12.6,16.23,20,24.83,3.69,4.25,7.43,8.52,11.32,12.67,8.43,9.06,17.63,18.07,27.39,26.84q6.39,5.74,12.94,11.19c12.1,10,23.31,18.54,34.25,26,3.9,2.63,7.93,5.11,12,7.61l2.79,1.73c11.36,7,23.05,13.62,34.75,19.53,5.28,2.62,10.7,5.28,16.2,7.75,11.9,5.38,24.64,10.37,39,15.26,6,2,12.07,4,18.21,5.8a436.93,436.93,0,0,0,43.74,10.54c6.87,1.24,13.84,2.24,20.82,3.15a435,435,0,0,0,56.33,3.93l1.13,0h.06c7.55,0,15.45-.22,23.48-.66a436,436,0,0,0,62-7.79c10.24-2,20.6-4.54,31.69-7.64A433.9,433.9,0,0,0,793,990.67,443.53,443.53,0,0,0,969.21,814.42a434.21,434.21,0,0,0,36.69-90.85c3.13-11.26,5.62-21.65,7.64-31.74a443.44,443.44,0,0,0,7.81-62c.42-8.34.63-16,.63-23.47l0-1.26a446,446,0,0,0-3.88-56.29q-1.4-10.49-3.28-20.83a427.86,427.86,0,0,0-10.33-43.76c-1.8-6.24-3.74-12.31-5.79-18.34-4.46-13.11-9.62-26.16-15.34-38.81-2.5-5.58-5.08-11-7.77-16.36-5.88-11.71-12.43-23.4-19.46-34.74-3.05-4.86-6.15-9.78-9.42-14.57-8-11.82-16.76-23.37-25.91-34.34q-5.47-6.57-11.18-12.91c-8.41-9.32-17.47-18.51-26.92-27.29q-6.23-5.81-12.71-11.37c-9.75-8.42-19.94-16.45-30.29-23.89-4.7-3.42-9.39-6.69-14.17-9.83-11.36-7.55-22.73-14.39-33.88-20.37-5.27-2.85-10.61-5.57-16-8.2a432.18,432.18,0,0,0-42.26-17.88c-5.92-2.15-11.89-4.22-17.93-6.1a442.34,442.34,0,0,0-43.12-11.14q-10.1-2-20.42-3.65a434.57,434.57,0,0,0-49.45-4.67c-2.72-.11-5.43-.22-8.15-.3V601.81a18.26,18.26,0,0,1-7.72,14.92Z"/></svg>